<?xml version="1.0" encoding="UTF-8" standalone="no"?>
<svg
   xmlns:dc="http://purl.org/dc/elements/1.1/"
   xmlns:cc="http://creativecommons.org/ns#"
   xmlns:rdf="http://www.w3.org/1999/02/22-rdf-syntax-ns#"
   xmlns:svg="http://www.w3.org/2000/svg"
   xmlns="http://www.w3.org/2000/svg"
   xmlns:sodipodi="http://sodipodi.sourceforge.net/DTD/sodipodi-0.dtd"
   xmlns:inkscape="http://www.inkscape.org/namespaces/inkscape"
   width="1000"
   height="1000"
   viewBox="0 0 1000 1000"
   version="1.1"
   id="svg8"
   sodipodi:docname="dumbbell_rotated.svg"
   inkscape:version="1.0.1 (3bc2e813f5, 2020-09-07)">
  <sodipodi:namedview
     pagecolor="#ffffff"
     bordercolor="#666666"
     borderopacity="1"
     objecttolerance="10"
     gridtolerance="10"
     guidetolerance="10"
     inkscape:pageopacity="0"
     inkscape:pageshadow="2"
     inkscape:window-width="2560"
     inkscape:window-height="1416"
     id="namedview966"
     showgrid="false"
     inkscape:zoom="0.893"
     inkscape:cx="292.27324"
     inkscape:cy="500"
     inkscape:window-x="0"
     inkscape:window-y="0"
     inkscape:window-maximized="0"
     inkscape:current-layer="svg8" />
  <defs
     id="defs2" />
  <metadata
     id="metadata5">
    <rdf:RDF>
      <cc:Work
         rdf:about="">
        <dc:format>image/svg+xml</dc:format>
        <dc:type
           rdf:resource="http://purl.org/dc/dcmitype/StillImage" />
        <dc:title />
      </cc:Work>
    </rdf:RDF>
  </metadata>
  <path
     id="path1555"
     style="color:#000000;font-style:normal;font-variant:normal;font-weight:normal;font-stretch:normal;font-size:medium;line-height:normal;font-family:sans-serif;font-variant-ligatures:normal;font-variant-position:normal;font-variant-caps:normal;font-variant-numeric:normal;font-variant-alternates:normal;font-variant-east-asian:normal;font-feature-settings:normal;font-variation-settings:normal;text-indent:0;text-align:start;text-decoration:none;text-decoration-line:none;text-decoration-style:solid;text-decoration-color:#000000;letter-spacing:normal;word-spacing:normal;text-transform:none;writing-mode:lr-tb;direction:ltr;text-orientation:mixed;dominant-baseline:auto;baseline-shift:baseline;text-anchor:start;white-space:normal;shape-padding:0;shape-margin:0;inline-size:0;clip-rule:nonzero;display:inline;overflow:visible;visibility:visible;isolation:auto;mix-blend-mode:normal;color-interpolation:sRGB;color-interpolation-filters:linearRGB;solid-color:#000000;solid-opacity:1;vector-effect:none;fill:#000000;fill-opacity:1;fill-rule:nonzero;stroke:none;stroke-width:135.764;stroke-linecap:round;stroke-linejoin:miter;stroke-miterlimit:4;stroke-dasharray:none;stroke-dashoffset:0;stroke-opacity:1;color-rendering:auto;image-rendering:auto;shape-rendering:auto;text-rendering:auto;enable-background:accumulate;stop-color:#000000;stop-opacity:1;opacity:1"
     d="M 579.9668,32.117188 A 67.882004,67.882004 0 0 0 532,52 a 67.882004,67.882004 0 0 0 0,96 L 652,268 620,300 300,620 268,652 148,532 A 67.882004,67.882004 0 0 0 99.966797,512.11719 67.882004,67.882004 0 0 0 52,532 a 67.882004,67.882004 0 0 0 0,96 l 320,320 a 67.882004,67.882004 0 0 0 96,0 67.882004,67.882004 0 0 0 0,-96 L 348,732 380,700 700,380 732,348 852,468 a 67.882004,67.882004 0 0 0 96,0 67.882004,67.882004 0 0 0 0,-96 L 628,52 A 67.882004,67.882004 0 0 0 579.9668,32.117188 Z M 740.20312,66.058594 A 33.941101,33.941101 0 0 0 716,76 a 33.941101,33.941101 0 0 0 0,48 l 160,160 a 33.941101,33.941101 0 0 0 48,0 33.941101,33.941101 0 0 0 0,-48 L 764,76 a 33.941101,33.941101 0 0 0 -23.79688,-9.941406 z m -640,639.999996 A 33.941101,33.941101 0 0 0 76,716 a 33.941101,33.941101 0 0 0 0,48 l 160,160 a 33.941101,33.941101 0 0 0 48,0 33.941101,33.941101 0 0 0 0,-48 L 124,716 a 33.941101,33.941101 0 0 0 -23.79688,-9.94141 z M 820.16602,83.029297 A 16.970551,16.970551 0 0 0 808,88 a 16.970551,16.970551 0 0 0 0,24 l 80,80 a 16.970551,16.970551 0 0 0 24,0 16.970551,16.970551 0 0 0 0,-24 L 832,88 a 16.970551,16.970551 0 0 0 -11.83398,-4.970703 z m -720,720.000003 A 16.970551,16.970551 0 0 0 88,808 a 16.970551,16.970551 0 0 0 0,24 l 80,80 a 16.970551,16.970551 0 0 0 24,0 16.970551,16.970551 0 0 0 0,-24 l -80,-80 a 16.970551,16.970551 0 0 0 -11.83398,-4.9707 z" />
</svg>
