<?xml version="1.0" encoding="UTF-8" standalone="no"?>
<svg
   xmlns:dc="http://purl.org/dc/elements/1.1/"
   xmlns:cc="http://creativecommons.org/ns#"
   xmlns:rdf="http://www.w3.org/1999/02/22-rdf-syntax-ns#"
   xmlns:svg="http://www.w3.org/2000/svg"
   xmlns="http://www.w3.org/2000/svg"
   xmlns:sodipodi="http://sodipodi.sourceforge.net/DTD/sodipodi-0.dtd"
   xmlns:inkscape="http://www.inkscape.org/namespaces/inkscape"
   width="1000"
   height="1000"
   viewBox="0 0 1000 1000"
   version="1.1"
   id="svg907"
   sodipodi:docname="dumbbell_not_rotated.svg"
   inkscape:version="1.0.1 (3bc2e813f5, 2020-09-07)">
  <metadata
     id="metadata913">
    <rdf:RDF>
      <cc:Work
         rdf:about="">
        <dc:format>image/svg+xml</dc:format>
        <dc:type
           rdf:resource="http://purl.org/dc/dcmitype/StillImage" />
      </cc:Work>
    </rdf:RDF>
  </metadata>
  <defs
     id="defs911" />
  <sodipodi:namedview
     pagecolor="#ffffff"
     bordercolor="#666666"
     borderopacity="1"
     objecttolerance="10"
     gridtolerance="10"
     guidetolerance="10"
     inkscape:pageopacity="0"
     inkscape:pageshadow="2"
     inkscape:window-width="2560"
     inkscape:window-height="1416"
     id="namedview909"
     showgrid="false"
     inkscape:zoom="0.87044845"
     inkscape:cx="489.69728"
     inkscape:cy="449.79759"
     inkscape:window-x="0"
     inkscape:window-y="0"
     inkscape:window-maximized="0"
     inkscape:current-layer="svg907" />
  <g
     id="g923">
    <g
       id="layer1">
      <path
         id="path943"
         style="color:#000000;font-style:normal;font-variant:normal;font-weight:normal;font-stretch:normal;font-size:medium;line-height:normal;font-family:sans-serif;font-variant-ligatures:normal;font-variant-position:normal;font-variant-caps:normal;font-variant-numeric:normal;font-variant-alternates:normal;font-variant-east-asian:normal;font-feature-settings:normal;font-variation-settings:normal;text-indent:0;text-align:start;text-decoration:none;text-decoration-line:none;text-decoration-style:solid;text-decoration-color:#000000;letter-spacing:normal;word-spacing:normal;text-transform:none;writing-mode:lr-tb;direction:ltr;text-orientation:mixed;dominant-baseline:auto;baseline-shift:baseline;text-anchor:start;white-space:normal;shape-padding:0;shape-margin:0;inline-size:0;clip-rule:nonzero;display:inline;overflow:visible;visibility:visible;isolation:auto;mix-blend-mode:normal;color-interpolation:sRGB;color-interpolation-filters:linearRGB;solid-color:#000000;solid-opacity:1;vector-effect:none;fill:#000000;fill-opacity:1;fill-rule:nonzero;stroke:none;stroke-width:120;stroke-linecap:round;stroke-linejoin:miter;stroke-miterlimit:4;stroke-dasharray:none;stroke-dashoffset:0;stroke-opacity:1;color-rendering:auto;image-rendering:auto;shape-rendering:auto;text-rendering:auto;enable-background:accumulate;stop-color:#000000;stop-opacity:1;opacity:1"
         d="m 200,240 a 60,60 0 0 0 -60,60 v 400 a 60,60 0 0 0 60,60 60,60 0 0 0 60,-60 V 550 h 40 400 40 v 150 a 60,60 0 0 0 60,60 60,60 0 0 0 60,-60 V 300 a 60,60 0 0 0 -60,-60 60,60 0 0 0 -60,60 V 450 H 700 300 260 V 300 a 60,60 0 0 0 -60,-60 z m 700,130 a 30,30 0 0 0 -30,30 v 200 a 30,30 0 0 0 30,30 30,30 0 0 0 30,-30 V 400 a 30,30 0 0 0 -30,-30 z m -800,0 a 30,30 0 0 0 -30,30 v 200 a 30,30 0 0 0 30,30 30,30 0 0 0 30,-30 V 400 a 30,30 0 0 0 -30,-30 z m 850,65 a 15,15 0 0 0 -15,15 v 100 a 15,15 0 0 0 15,15 15,15 0 0 0 15,-15 V 450 a 15,15 0 0 0 -15,-15 z m -900,0 a 15,15 0 0 0 -15,15 v 100 a 15,15 0 0 0 15,15 15,15 0 0 0 15,-15 V 450 A 15,15 0 0 0 50,435 Z" />
    </g>
  </g>
</svg>
